<?xml version="1.0" standalone="no"?>
<!DOCTYPE svg PUBLIC "-//W3C//DTD SVG 20010904//EN"
 "http://www.w3.org/TR/2001/REC-SVG-20010904/DTD/svg10.dtd">
<svg version="1.0" xmlns="http://www.w3.org/2000/svg"
 width="300.000000pt" height="360.000000pt" viewBox="0 0 300.000000 360.000000"
 preserveAspectRatio="xMidYMid meet">
<metadata>
Created by potrace 1.10, written by Peter Selinger 2001-2011
</metadata>
<g transform="translate(0.000000,360.000000) scale(0.050000,-0.050000)"
fill="#000000" stroke="none">
<path d="M2120 5856 c0 -7 -16 -14 -35 -15 -310 -14 -674 -229 -865 -511 -16
-25 -68 -89 -115 -142 -125 -143 -223 -281 -259 -365 -17 -40 -44 -98 -60
-128 -27 -53 -27 -395 1 -475 5 -16 16 -65 23 -108 7 -42 35 -112 62 -155 27
-43 59 -122 71 -175 13 -55 33 -95 45 -91 28 9 120 -140 256 -413 108 -215
123 -251 186 -428 20 -55 66 -164 103 -243 37 -79 67 -158 67 -175 0 -18 7
-32 17 -32 26 0 128 -392 114 -437 -12 -38 -19 -36 -147 36 -74 42 -188 96
-254 121 -156 59 -491 197 -531 218 -17 10 -62 24 -100 32 -38 8 -111 36 -163
62 -52 27 -112 48 -134 48 -21 0 -78 17 -125 37 -48 20 -130 42 -182 48 l-95
10 0 -76 c0 -76 0 -77 95 -89 98 -13 128 -23 385 -126 83 -33 200 -76 260 -95
61 -19 180 -65 265 -102 85 -37 225 -90 312 -117 87 -28 181 -68 208 -90 28
-22 57 -40 63 -40 7 0 29 -17 50 -38 21 -21 51 -45 68 -55 25 -14 28 -35 12
-116 -11 -59 -11 -106 0 -117 24 -24 102 55 102 104 0 20 14 71 31 112 59 139
50 487 -14 559 -9 10 -17 31 -17 46 0 15 -18 69 -41 121 -61 139 -72 167 -101
244 -14 39 -73 172 -132 296 -58 125 -106 239 -106 254 0 15 -10 34 -21 41
-12 7 -51 77 -87 156 -36 79 -108 209 -159 289 -52 81 -109 184 -127 230 -18
46 -40 94 -49 106 -9 12 -23 66 -30 120 -7 54 -21 115 -32 136 -26 49 -22 233
5 260 11 11 20 35 20 54 0 62 92 239 157 299 55 51 75 50 211 -20 63 -32 127
-54 142 -48 15 5 37 -9 49 -31 12 -23 35 -42 51 -42 16 0 47 -36 70 -79 45
-89 50 -121 19 -121 -12 0 -15 10 -7 23 9 14 5 18 -9 9 -44 -27 -27 -92 25
-92 26 0 53 -14 60 -31 6 -17 3 -26 -7 -20 -10 7 -24 3 -30 -7 -6 -11 -3 -25
9 -32 11 -7 20 -33 20 -57 0 -53 35 -93 80 -93 18 0 52 -22 75 -49 137 -157
721 -138 912 31 49 43 98 78 110 78 11 0 48 23 81 52 46 38 62 44 62 21 0 -17
-9 -36 -20 -43 -11 -7 -20 -29 -20 -48 0 -20 -19 -61 -42 -90 -43 -54 -40
-112 6 -112 29 1 116 86 116 113 0 9 18 53 39 97 22 44 44 105 51 135 10 53
16 55 135 55 158 0 269 31 295 81 12 21 30 39 40 39 30 0 281 -182 306 -223
13 -20 33 -37 44 -37 11 0 52 -22 91 -48 98 -67 420 -232 452 -232 32 0 185
-77 232 -116 41 -35 46 -84 10 -84 -14 0 -61 -17 -105 -39 -88 -42 -441 -93
-506 -72 -22 7 -46 3 -53 -8 -29 -46 -300 27 -424 113 -36 25 -124 49 -237 64
-99 14 -216 33 -260 42 -173 37 -331 -27 -275 -112 8 -12 77 -28 153 -34 152
-14 168 -21 137 -59 -12 -14 -50 -95 -86 -181 -78 -186 -78 -184 77 -704 195
-655 222 -741 263 -819 23 -44 41 -94 41 -113 0 -18 23 -94 51 -168 28 -74 47
-145 42 -158 -4 -12 4 -44 19 -72 15 -27 40 -95 56 -150 17 -55 52 -161 80
-236 27 -75 55 -174 63 -220 7 -46 25 -97 38 -114 57 -69 97 -613 52 -699 -42
-77 -2 -181 69 -181 l65 0 14 145 c24 234 18 619 -9 674 -29 57 -101 310 -100
353 0 23 -5 47 -12 53 -16 16 -113 308 -159 475 -19 72 -42 139 -50 150 -8 11
-21 61 -29 110 -8 50 -41 143 -73 209 -31 65 -57 130 -57 145 0 15 -9 42 -20
61 -11 19 -43 121 -71 225 -29 105 -59 199 -68 210 -9 11 -27 70 -41 130 -13
61 -38 142 -54 180 -81 187 -96 367 -40 478 19 38 34 79 34 93 0 13 14 35 30
49 17 14 30 46 30 73 0 42 7 46 55 36 125 -28 416 -136 488 -181 42 -26 85
-48 97 -48 11 0 20 -7 20 -15 0 -36 218 -24 430 24 175 40 408 169 467 258
l51 77 -45 83 c-46 87 -48 88 -433 263 -88 40 -196 96 -240 125 -44 30 -82 55
-85 56 -3 2 16 43 43 91 61 108 110 323 98 420 -8 62 -1 78 47 115 96 72 107
84 107 113 0 16 -23 35 -50 42 -28 7 -58 27 -68 44 -21 38 -236 47 -462 20
-163 -20 -182 -26 -445 -133 -64 -26 -67 -19 -22 57 32 53 31 58 -10 111 -62
79 -255 244 -302 259 -23 7 -41 21 -41 31 0 11 -7 17 -15 15 -8 -2 -78 17
-155 44 -160 55 -162 55 -310 71 -60 7 -153 26 -205 42 -52 17 -103 24 -115
17 -11 -7 -20 -3 -20 8 0 11 -27 19 -60 16 -33 -2 -60 -10 -60 -18z m272 -185
c103 -15 198 -35 212 -44 14 -8 77 -22 139 -29 220 -26 493 -208 547 -365 l24
-69 -72 -12 c-40 -6 -96 -12 -126 -12 -30 0 -63 -15 -73 -34 -14 -26 -52 -35
-166 -39 -81 -2 -156 -6 -167 -8 -32 -5 -371 19 -386 28 -8 4 -117 -4 -242
-18 -139 -15 -251 -18 -288 -7 -34 9 -71 10 -82 0 -53 -40 -324 9 -407 74
l-46 35 51 69 c93 127 315 340 352 340 21 0 38 8 38 18 0 29 123 63 350 95 44
6 84 15 89 20 5 4 22 3 38 -3 15 -6 112 -23 215 -39z m1578 -551 c-13 -61 -94
-122 -123 -93 -19 19 35 113 64 113 14 0 30 15 37 33 21 54 37 15 22 -53z
m-535 -355 c-3 -41 -16 -75 -29 -75 -12 0 -29 -7 -38 -15 -26 -26 -124 -16
-155 15 -17 17 -43 30 -60 30 -20 0 -26 13 -18 42 15 57 61 71 93 27 26 -35
29 -34 84 7 92 68 130 58 123 -31z m-1115 10 c0 -15 -39 -63 -87 -108 -93 -87
-119 -131 -122 -202 0 -24 -10 -42 -21 -40 -55 13 33 202 148 318 59 60 82 69
82 32z"/>
<path d="M3440 4412 c-51 -16 -72 -35 -77 -71 -8 -60 46 -107 94 -81 18 10 62
29 98 43 134 54 27 156 -115 109z"/>
<path d="M1819 3787 c-17 -21 -42 -61 -57 -89 -81 -162 -151 -188 -202 -72
-50 112 -60 120 -103 81 -57 -51 -13 -179 89 -264 64 -53 274 153 274 269 0
25 10 48 23 52 13 5 19 19 14 34 -6 18 -16 15 -38 -11z"/>
<path d="M2766 3515 c-9 -14 -25 -56 -37 -95 -22 -75 -55 -86 -65 -22 -7 46
-44 63 -102 48 -50 -13 -57 -89 -12 -126 17 -14 30 -38 30 -53 0 -70 104 -72
173 -3 72 72 108 276 48 276 -10 0 -26 -11 -35 -25z"/>
<path d="M2454 2881 c-36 -97 -109 -122 -162 -56 -90 113 -161 50 -93 -83 86
-169 341 -59 341 148 0 70 -58 64 -86 -9z"/>
<path d="M3062 2555 c-81 -212 -99 -229 -154 -145 -77 117 -157 25 -90 -105
85 -167 238 -169 268 -4 45 245 31 398 -24 254z"/>
<path d="M2458 1785 c-55 -146 -154 -195 -198 -100 -33 72 -92 86 -128 30 -34
-54 60 -223 128 -230 67 -8 250 162 269 251 24 107 -34 147 -71 49z"/>
<path d="M3147 1780 c-69 -73 -101 -76 -131 -10 -41 91 -145 42 -121 -58 40
-162 212 -141 307 37 48 90 17 108 -55 31z"/>
<path d="M11 1565 c-6 -7 -11 -47 -11 -90 0 -78 0 -78 65 -64 36 8 74 14 85
14 242 -17 459 -70 609 -150 59 -32 154 -76 210 -97 111 -43 182 -73 236 -100
52 -27 187 -21 212 8 25 30 -6 74 -51 74 -15 0 -62 23 -106 50 -44 28 -91 50
-105 50 -14 0 -44 12 -66 26 -21 15 -84 43 -139 63 -55 20 -138 58 -183 85
-169 97 -698 189 -756 131z"/>
</g>
</svg>
