<?xml version="1.0" encoding="UTF-8" standalone="no"?>
<svg
   version="1.0"
   width="300.000000pt"
   height="360.000000pt"
   viewBox="0 0 300.000000 360.000000"
   preserveAspectRatio="xMidYMid meet"
   id="svg112"
   sodipodi:docname="N2x78J01.svg"
   inkscape:version="1.2.2 (b0a8486541, 2022-12-01)"
   xmlns:inkscape="http://www.inkscape.org/namespaces/inkscape"
   xmlns:sodipodi="http://sodipodi.sourceforge.net/DTD/sodipodi-0.dtd"
   xmlns="http://www.w3.org/2000/svg"
   xmlns:svg="http://www.w3.org/2000/svg">
  <defs
     id="defs116" />
  <sodipodi:namedview
     id="namedview114"
     pagecolor="#505050"
     bordercolor="#ffffff"
     borderopacity="1"
     inkscape:showpageshadow="0"
     inkscape:pageopacity="0"
     inkscape:pagecheckerboard="1"
     inkscape:deskcolor="#505050"
     inkscape:document-units="pt"
     showgrid="false"
     inkscape:zoom="1.6244309"
     inkscape:cx="333.03972"
     inkscape:cy="209.30407"
     inkscape:window-width="1920"
     inkscape:window-height="1056"
     inkscape:window-x="0"
     inkscape:window-y="0"
     inkscape:window-maximized="1"
     inkscape:current-layer="svg112" />
  <metadata
     id="metadata76">
Created by potrace 1.10, written by Peter Selinger 2001-2011
</metadata>
  <g
     transform="translate(0.000000,360.000000) scale(0.100000,-0.100000)"
     fill="#000000"
     stroke="none"
     id="g110">
    <path
       d="m 1025,2903 c -22,-8 -56,-17 -75,-18 -95,-10 -132,-28 -213,-105 -44,-41 -99,-101 -123,-132 -24,-31 -56,-70 -71,-87 -69,-75 -123,-155 -123,-182 0,-6 -7,-27 -16,-46 -15,-30 -15,-47 -6,-131 17,-146 22,-172 50,-221 13,-26 42,-80 64,-121 21,-41 48,-84 59,-96 10,-11 19,-24 19,-28 0,-13 53,-121 62,-124 4,-2 8,-8 8,-13 0,-4 11,-32 24,-61 13,-29 30,-71 37,-93 6,-22 21,-58 32,-80 11,-22 19,-41 19,-42 -1,-2 7,-19 18,-38 26.45661,-53.475 45.26638,-102.6727 55,-134 8,-23 15,-45 15,-49 0,-4 5,-23 9,-42 5,-19 12,-59 15,-88 7,-53 7,-53 -16,-41 -13,7 -25,15 -28,19 -11,13 -102,70 -113,70 -7,0 -21,6 -32,14 -11,7 -47,21 -79,30 -32,10 -68,24 -80,31 -19,13 -151,64 -221,86 -16,5 -46,17 -65,26 -43,21 -150,51 -207,58 -37,5 -43,3 -43,-14 0,-19 25,-31 65,-31 11,0 33,-7 49,-15 15,-8 38,-17 50,-19 16.16468,-5.071 124.75923,-43.3088 131,-50 9,-9 23,-16 32,-16 21,0 106,-29 173,-58 30,-13 69,-30 85,-37 27,-12 64,-23 103,-31 7,-1 27,-12 45,-23 17,-11 47,-28 65,-36 17,-8 32,-20 32,-25 0,-6 12,-15 26,-20 22,-9 25,-15 20,-38 -18,-79 -19,-95 -6,-90 7,2 24,38 37,78 27,80 32,171 15,250 -13,61 -61,191 -78,211 -8,8 -14,23 -14,32 0,9 -4,18 -9,21 -5,3 -12,18 -15,32 -7,28 -32,86 -72,170 -13,28 -24,54 -24,57 0,3 -11,23 -25,43 -14,20 -30,54 -35,75 -6,21 -22,51 -35,67 -14,17 -25,34 -25,39 0,5 -15,31 -32,59 -30,44 -43,75 -76,169 -15,42 -35,135 -37,165 4.25517,143.0849 111.88221,257.9567 114,264 l 9,23 69,-34 c 45,-22 86,-35 115,-36 26,-1 44,-5 42,-8 -2,-4 3,-12 11,-19 8,-7 15,-19 15,-27 0,-7 7,-16 15,-19 8,-4 15,-15 15,-26 0,-25 29,-87 51,-111 9,-10 15,-26 12,-35 -4,-18 40,-77 70,-94 30,-16 138,-28 177,-19 19,4 50,3 69,-2 21,-5 42,-5 55,1 61,28 76,36 107,63 19,16 48,36 65,44 48,23 82.051,148.0768 57.5251,166.2972 -14,11 -23.5251,-11.2972 -17.5251,-25.2972 5.5545,-18.3074 -13.3774,-16.6316 -10,-33 6,-28 -49,-98 -75,-96 -13,2 -24,-4 -28,-15 -11,-27 -30,-42 -47,-36 -9,3 -16,1 -16,-5 0,-6 -7,-11 -15,-11 -7,0 -18,-7 -23,-17 -7,-11 -15,-14 -28,-8 -11,5 -22,7 -26,7 -5,-1 -8,8 -8,19 0,17 -3,19 -14,10 -20,-17 -66,-3 -66,20 0,10 -5,19 -10,19 -6,0 -9,6 -8,13 2,6 -3,11 -9,9 -7,-1 -13,5 -13,13 0,8 7,15 16,15 14,0 15,2 3,17 -8,9 -9,14 -3,10 7,-4 14,3 18,18 4,17 11,23 23,18 11,-4 14,-3 9,5 -4,7 -2,12 4,12 6,0 8,5 4,12 -4,7 -3,8 4,4 7,-4 12,-17 13,-29 0,-21 1,-21 8,-2 5,11 6,25 4,32 -7,17 28,72 49,79 21,6 24,24 4,24 -21,0 -175,-158 -181,-186 -3,-13 -7,-35 -10,-49 -7,-34 -45,-49 -63,-27 -8,11 -9,18 -2,20 5,2 10,10 10,18 0,18 40,94 62,118 10,11 18,23 18,27 0,4 9,10 19,14 11,3 21,16 23,28 2,12 8,22 13,23 18,1 85,37 85,46 0,4 -4,8 -10,8 -5,0 -10,-5 -10,-11 0,-5 -8,-9 -17,-8 -35,3 -54,-1 -48,-11 3,-5 0,-10 -7,-10 -15,0 -108,-99 -108,-115 0,-16 -24,-65 -32,-65 -3,0 -4,-9 -1,-20 3,-12 2,-20 -3,-19 -24,4 -31,-3 -26,-28 4,-27 4,-27 -12,-8 -8,11 -16,25 -16,30 0,6 -13,35 -29,66 -16,30 -32,66 -36,80 -4,13 -18,38 -31,55 -27,35 -31,56 -9,48 8,-3 51,1 95,10 44,9 106,19 138,21 31,2 58,4 60,5 7,6 29,5 44,-2 26,-13 258,-10 258,3 0,3 11,4 25,1 14,-2 25,-8 25,-13 0,-11 29,-7 50,6 36,24 59,33 62,25 2,-5 17,-3 33,4 64,29 221,85 251,89 17,3 38,1 45,-4 10,-6 11,-9 2,-9 -7,0 -13,-7 -13,-15 0,-8 -4,-15 -8,-15 -10,0 -75,-90 -78,-108 -5,-26 22,-4 66,54 65,86 85,100 155,106 33,3 54,4 47,1 -6,-3 -9,-9 -6,-14 3,-6 11,-6 20,2 19,16 44,4 44,-21 0,-12 -3,-19 -7,-17 -5,3 -16,-6 -26,-19 -10,-13 -14,-24 -10,-24 9,0 8,-69 -2,-107 -3,-12 -13,-24 -23,-26 -16,-4 -16,-5 1,-6 9,0 17,-5 17,-10 0,-5 -8,-12 -17,-14 -17,-4 -17,-5 0,-6 18,-1 25,-31 7,-31 -6,0 -17,-15 -26,-33 -9,-18 -25,-39 -36,-46 -17,-10 -22,-9 -34,6 -8,10 -12,25 -10,33 2,10 -4,17 -16,17 -11,1 -26,7 -34,14 -12,10 -12,14 3,25 26,20 42,17 53,-8 5,-13 9,-17 9,-10 1,8 -7,24 -17,37 l -19,24 -32,-20 c -21,-13 -37,-17 -44,-11 -7,5 -20,8 -30,6 -16,-2 -18,2 -12,23 5,23 -7.4823,85.6595 -20.4823,74.6595 -9,-8 -4.5177,-81.6595 -4.5177,-90.6595 1,-15 97,-102 123,-110 7,-2 22,-15 35,-29 20,-22 26,-24 42,-14 11,7 23,12 27,12 5,0 2,-4 -5,-8 -7,-5 -10,-16 -6,-25 7,-20 69,-57 95,-57 11,0 17,-4 14,-10 -3,-5 1,-10 9,-10 9,0 16,-4 16,-10 0,-5 8,-10 18,-10 10,0 22,-4 28,-8 5,-4 34,-16 64,-27 30,-10 67,-26 82,-37 14,-10 31,-18 36,-18 16,0 23,-31 11,-46 -6,-8 -19,-14 -29,-14 -9,0 -29,-9 -44,-21 -18,-14 -35,-19 -51,-15 -71.2077,-45.2441 -49.4498,7.7764 -109,-11 -11,-3 -42,-7 -69,-8 -26,-1 -50,-5 -54,-8 -18,-18 -134,15 -214,61 -38,23 -60,28 -174,43 -116,15 -157,16 -187,1 -57,-27 -25,-51 65,-48 37,2 70,-1 73,-6 3,-5 -13,-48 -36,-96 -38,-80 -41,-91 -35,-142 7,-61 35,-150 47,-150 4,0 5,-6 2,-14 -6,-15 45,-202 69,-259 8,-18 19,-55 25,-84 6,-28 25,-79 42,-114 16,-34 30,-71 30,-81 0,-10 4,-18 10,-18 5,0 7,-6 4,-14 -3,-8 4,-36 15,-62 12,-25 21,-57 21,-70 0,-12 4,-25 9,-28 4,-3 11,-20 15,-38 7,-35 82,-280 96,-313 32,-75 45,-289 25,-407 l -8,-48 h 31 c 29,0 30,1 36,67 16,160 6,317 -28,417 -14,43 -26,87 -26,97 0,11 -4,27 -10,37 -16,30 -82,237 -85,267 -1,6 -6,19 -12,30 -5,11 -13,37 -16,57 -3,20 -13,53 -21,72 -50,112 -65,156 -97,274 -11,42 -24,81 -28,87 -4,5 -14,37 -21,70 -7,33 -20,73 -28,89 -20,41 -39,120 -37,153 4,52 17,103 29,111 14,9 36,70 36,100 0,13 6,22 15,22 8,0 15,-4 15,-9 0,-5 18,-11 39,-15 22,-3 52,-11 68,-18 15,-6 30,-12 33,-13 32,-11 77,-31 132,-61 69,-36 139,-47 160,-26 6,6 16,8 23,6 7,-3 16,-1 20,5 3,6 18,11 32,11 28,0 85,16 117,32 93,48 146,90 146,117 0,47 -64,93 -217,157 -24,10 -43,21 -43,25 0,4 -16,13 -36,19 -39,13 -114,59 -114,71 0,4 7,9 15,13 8,3 15,12 15,21 0,8 4,15 9,15 13,0 41,123 41,184 0,44 4,59 22,76 12,11 28,20 35,20 14,0 35,34 26,44 -3,3 -21,6 -40,6 -22,0 -33,5 -33,14 0,24 -125,25 -275,3 -43,-7 -83,-21 -151,-54 -57,-26 -85,-34 -134,-34 -51,-1 -63,-4 -67,-19 -4,-15 -17,-18 -81,-19 -43,-1 -88,-2 -102,-3 -14,0 -70,3 -124,7 -104,8 -253,-7 -310,-31 -25,-10 -36,-9 -70,6 -23,9 -63,20 -90,23 -27,4 -64,16 -83,27 -35,20 -58,18 -67,-6 -3,-8 -16,-14 -28,-14 -18,0 -20,2 -8,9 8,6 17,8 21,5 4,-2 5,5 2,16 -4,13 0,20 9,20 8,0 44,33 79,72 121,137 171,170 282,188 40,6 81,15 92,19 25,10 215,-21 269,-44 30,-13 45,-14 69,-5 17,5 33,7 36,2 3,-4 27,-17 54,-28 26,-11 59,-31 74,-44 15,-13 42,-33 60,-46 19,-12 34,-25 34,-28 0,-3 2,-20 6,-36 7,-38 28,-36 51,3 l 17,28 -60,59 c -70,70 -197,137 -285,151 -30,4 -98,15 -150,23 -52,9 -108,18 -125,20 -16,3 -48,-2 -70,-11 z m 100,-733 c 0,-8 4,-18 9,-21 4,-4 3,-15 -3,-25 -6,-11 -11,-13 -11,-6 0,6 -9,12 -19,12 -25,0 -34,15 -26,41 8,24 50,23 50,-1 z"
       id="path78"
       sodipodi:nodetypes="cccscscccccscsscscccsccccsccccccsscccscccccsccccccssccssccsccccccccsscsccccccccccccccsscccscssccsscccccsssccccsccccscscscssscssssccccsccccscccscscccccsssccccccscsscccsccsscscccccccccccccccccsccscssscccscscccccccccsccsccccssscscccccsccscccscccscccsssccccsccscscscscssscscsscccscccccccsscccscccccccscsccccccccsccsscs" />
    <path
       d="M2080 2580 c0 -5 -9 -10 -19 -10 -11 0 -23 -9 -27 -22 -3 -12 -22 -43 -41 -70 -39 -53 -40 -70 -3 -38 13 11 19 20 14 20 -5 0 -4 4 1 8 17 11 45 60 45 76 0 9 12 16 29 18 24 2 27 5 15 16 -8 7 -14 8 -14 2z"
       id="path80" />
    <path
       d="m 1984,2526 c -3,-8 -25,-27 -50,-42 -24,-15 -44,-32 -44,-36 0,-4 -7,-8 -15,-8 -8,0 -12,-6 -9,-13 28.6561,-18.6212 57.1971,7.45 81,34 15,18 33,37 38,43 11,13 18,36 10,36 -3,0 -8,-6 -11,-14 z"
       id="path82"
       sodipodi:nodetypes="scsscccss" />
    <path
       d="m 1645,2491 c -26,-4 -82.3157,-14.0187 -74.3157,-19.0187 32.0994,-6.7393 67.7131,15.82 98.3157,4.0187 9,-6 8,-12 -4,-26 -26,-28 -90,-15 -78,15 6,17 -12,21 -22,5 -4,-6 -11,-8 -16,-5 -5,4 -9,1 -9,-5 0,-7 7,-10 15,-6 8,3 15,1 15,-4 0,-6 -4,-10 -10,-10 -5,0 -17,-17 -26,-37 -10,-21 -19,-41 -21,-45 -2,-3 -13.6204,-27.2499 -4.6204,-26.2499 10,2 42.6204,37.2499 49.6204,52.2499 18,36 41,44 58,21 13,-17 15,-17 32,-2 10,10 36,26 58,36 l 39,19 -28,7 c -18,5 -26,12 -23,21 3,8 2,13 -2,13 -4,-1 -25,-5 -47,-8 z"
       id="path84"
       sodipodi:nodetypes="cccccccscsscccccccccccc" />
    <path
       d="M1286 2426 c-14 -12 -30 -33 -35 -48 -6 -16 -17 -28 -26 -28 -17 0 -20 -16 -6 -25 5 -3 20 9 32 27 13 18 38 47 56 64 36 34 19 43 -21 10z"
       id="path86" />
    <path
       d="M1736 2415 c-4 -14 -4 -36 0 -49 5 -21 0 -25 -39 -39 -37 -13 -48 -13 -76 -1 -45 19 -61 18 -61 -5 0 -11 -5 -23 -10 -26 -6 -4 -8 -15 -5 -25 6 -19 -45 -129 -70 -150 -17 -14 -20 -36 -4 -45 10 -7 59 38 59 55 0 5 9 24 19 42 11 18 22 52 26 76 4 23 8 42 10 42 2 0 15 -4 28 -9 16 -6 46 -5 88 4 35 7 67 11 70 9 4 -2 12 2 18 10 14 17 -2 66 -22 66 -9 0 -12 11 -9 35 5 40 -13 48 -22 10z"
       id="path88" />
    <path
       d="m 1327,2382 c -21,-21 -177.9155,-204.8925 -174.9155,-208.8925 6,-5 227.9155,231.8925 227.9155,242.8925 0,13 -21,-1 -53,-34 z"
       id="path90"
       sodipodi:nodetypes="ccsc" />
    <path
       d="m 1224,2257 c -23,-23 -49,-48 -58,-55 -9,-7 -14,-18 -10,-24 4,-6 16,1 31,18 58.3557,38.6071 11.8282,13.6379 59,67 5,-1 15,7 22,18 20,32 -1,21 -44,-24 z"
       id="path92"
       sodipodi:nodetypes="csscccc" />
    <path
       d="M1726 2201 c-40 -9 -56 -35 -33 -58 13 -13 20 -14 29 -5 7 7 19 12 28 12 9 0 25 7 36 15 19 15 19 15 0 30 -11 8 -22 14 -25 14 -3 -1 -19 -4 -35 -8z"
       id="path94" />
    <path
       d="M886 1856 c-31 -62 -69 -101 -89 -93 -8 3 -20 26 -27 51 -14 49 -20 55 -40 31 -10 -12 -8 -23 8 -58 30 -64 44 -73 82 -51 16 10 30 21 30 24 0 3 14 21 30 40 16 19 30 45 30 56 0 12 7 24 15 28 19 7 20 26 2 26 -8 0 -26 -24 -41 -54z"
       id="path96" />
    <path
       d="M1382 1752 c-7 -5 -10 -16 -7 -24 6 -15 -19 -78 -31 -78 -3 0 -12 16 -20 35 -11 27 -20 35 -39 35 -18 0 -25 -5 -25 -20 0 -11 6 -23 14 -26 8 -3 19 -19 25 -35 21 -61 96 -10 107 74 7 46 1 55 -24 39z"
       id="path98" />
    <path
       d="M1228 1428 c-29 -53 -67 -63 -87 -24 -17 31 -36 39 -50 22 -17 -20 42 -96 73 -96 29 0 106 86 106 119 0 33 -16 25 -42 -21z"
       id="path100" />
    <path
       d="M1537 1293 c-4 -3 -7 -14 -7 -24 0 -20 -46 -129 -54 -129 -3 0 -14 20 -25 45 -20 46 -37 57 -47 30 -10 -25 4 -60 35 -93 28 -28 32 -30 60 -19 22 8 31 18 31 34 0 12 4 32 9 45 24 64 22 136 -2 111z"
       id="path102" />
    <path
       d="M1570 880 c-38 -48 -57 -51 -68 -8 -9 35 -38 46 -47 18 -7 -23 18 -75 41 -84 21 -8 81 29 89 54 4 11 10 20 15 20 12 0 21 28 10 35 -4 3 -23 -13 -40 -35z"
       id="path104" />
    <path
       d="M1239 905 c-1 -3 -2 -8 -3 -12 -12 -44 -76 -110 -96 -98 -5 3 -10 14 -10 24 0 26 -34 66 -48 57 -31 -19 12 -118 54 -124 31 -4 124 93 124 129 0 16 -4 29 -10 29 -5 0 -11 -2 -11 -5z"
       id="path106" />
    <path
       d="M 43,772 C 6,769 0,766 0,747 c 0,-21 4,-22 92,-21 51,1 98,-2 103,-6 6,-4 37,-14 70,-22 33,-9 86,-30 118,-47 31,-17 62,-31 67,-31 5,0 37,-13 72,-28 124,-56 171,-68 188,-47 10,12 7,15 -17,20 -15,3 -35,10 -43,16 -8,5 -26,14 -40,20 -14,5 -43,19 -65,29 -22,11 -50,21 -62,23 -62.23358,29.07749 -108.49533,53.46565 -169,77 -57,22 -210,46 -271,42 z"
       id="path108"
       sodipodi:nodetypes="csccccsccccccccc" />
  </g>
</svg>
