<?xml version="1.0" standalone="no"?>
<!DOCTYPE svg PUBLIC "-//W3C//DTD SVG 20010904//EN"
 "http://www.w3.org/TR/2001/REC-SVG-20010904/DTD/svg10.dtd">
<svg version="1.0" xmlns="http://www.w3.org/2000/svg"
 width="900.000000pt" height="900.000000pt" viewBox="0 0 900.000000 900.000000"
 preserveAspectRatio="xMidYMid meet">
<g transform="translate(0.000000,900.000000) scale(0.100000,-0.100000)"
fill="#000000" stroke="none">
<path d="M4945 6171 l-400 -6 -3 -1346 c-2 -1198 -4 -1348 -17 -1359 -12 -10
-19 -10 -27 -2 -7 7 -20 12 -29 12 -53 0 -232 115 -295 190 -52 62 -91 124
-114 180 -12 30 -29 69 -36 87 -8 17 -14 38 -14 47 0 9 -6 42 -14 74 -25 99
-38 257 -47 577 -4 171 -12 330 -18 355 -6 25 -10 63 -11 85 0 22 -6 60 -14
85 -8 25 -22 74 -31 110 -9 36 -23 78 -31 93 -8 16 -14 34 -14 40 0 24 -77
167 -136 252 -122 177 -300 316 -537 419 -21 9 -44 16 -52 16 -8 0 -29 6 -47
14 -18 8 -69 22 -113 32 -108 24 -360 24 -424 0 -24 -9 -52 -16 -63 -16 -37 0
-223 -88 -289 -138 -136 -101 -262 -255 -331 -402 -27 -59 -88 -182 -121 -245
-42 -78 -155 -190 -238 -234 l-64 -35 -150 4 c-287 7 -285 8 -285 -72 0 -49
21 -101 57 -144 27 -33 101 -75 158 -91 170 -48 124 -45 1000 -53 817 -7 831
-7 904 -29 182 -54 258 -118 320 -271 20 -47 26 -212 11 -276 -14 -57 -9 -111
5 -59 5 16 17 38 28 50 30 31 65 120 110 275 9 30 29 100 45 155 52 178 62
281 38 400 -13 66 -25 98 -63 170 -20 37 -139 155 -157 155 -7 0 -25 14 -41
30 -16 17 -36 30 -46 30 -9 0 -22 7 -29 15 -7 8 -20 15 -30 15 -10 0 -23 7
-30 15 -7 8 -22 15 -34 15 -11 0 -28 4 -36 10 -25 16 19 25 54 11 17 -7 40
-15 51 -18 24 -7 144 -60 165 -73 8 -6 25 -14 36 -19 12 -6 50 -36 85 -69 62
-57 93 -108 144 -229 24 -57 24 -258 1 -340 -37 -128 -47 -161 -66 -218 -31
-95 -90 -246 -119 -304 -5 -9 -17 -34 -26 -56 -28 -62 -138 -275 -189 -365
-14 -25 -30 -54 -36 -65 -6 -11 -19 -33 -30 -50 -11 -16 -23 -37 -27 -45 -4
-8 -40 -65 -80 -127 -40 -61 -73 -114 -73 -117 0 -9 -73 -110 -82 -114 -5 -2
-8 -13 -8 -23 0 -20 15 -20 1768 -16 1915 3 1750 -1 2037 53 151 29 336 83
407 120 14 8 31 14 37 14 10 0 139 60 176 83 11 7 36 24 56 40 20 15 40 27 44
27 33 0 273 239 336 335 86 131 132 219 155 300 8 28 19 64 24 80 13 42 27 99
45 181 20 95 20 365 0 449 -8 33 -14 74 -15 90 0 17 -6 50 -14 75 -8 25 -22
72 -32 105 -23 75 -50 139 -81 187 -12 21 -23 43 -24 50 -1 29 -132 211 -199
277 -35 34 -134 121 -165 144 -83 61 -147 100 -230 140 -55 27 -108 53 -117
58 -22 11 -94 38 -133 49 -16 4 -43 13 -60 19 -16 5 -59 17 -95 26 -36 9 -90
23 -120 30 -85 22 -217 45 -253 45 -17 0 -66 6 -107 14 -90 17 -864 25 -1485
17z m-2347 -516 c27 -30 32 -42 32 -84 0 -43 -4 -53 -32 -76 -50 -42 -76 -49
-125 -30 -45 17 -83 65 -83 103 0 32 37 97 63 110 59 30 101 23 145 -23z m529
-211 c13 -4 20 -10 17 -15 -6 -10 -49 -12 -83 -2 -23 6 -23 7 -5 14 24 10 43
10 71 3z m3254 -219 c250 -42 332 -71 442 -154 246 -184 278 -534 69 -749 -59
-61 -159 -132 -186 -132 -8 0 -17 -4 -20 -9 -6 -9 -104 -40 -191 -60 -106 -25
-291 -41 -556 -48 -151 -3 -287 -3 -302 1 l-27 6 0 579 c0 454 3 581 13 585 6
3 159 4 338 2 236 -4 353 -9 420 -21z"/>
</g>
</svg>
